<svg width="2400" height="2400" viewBox="0 0 200 200" xmlns="http://www.w3.org/2000/svg">
    <rect x="0" y="0" width="200" height="200" rx="7" ry="7" fill="#cb3837"/>
    <svg x="50" y="50" width="100" height="100" viewBox="0 0 833 829" xmlns="http://www.w3.org/2000/svg">
        <path d="M199.088 363.33s-129.66 91.26-134.73 126.03l9.73-2s155.266-102.914 278.346-115.464l2.787-15.62-156.13 7.053m203.53-13.044l-102.126 72.437 5.52 4.43c4.163-3.36 181.413-57.492 181.413-57.492l37.37-23.43c-25.074 3.12-122.174 4.056-122.174 4.056m88.764 87.612c72.52 0 181.23-71.026 181.23-71.026l-35.143-6.687c-1.735 1.737-56.664-1.925-56.664-1.925l-26.076-7.242-62.295 70.986-5.07 12.316c4.476-1.82 4.02 3.58 4.02 3.58M185.23 706.938l-1.504-.692c-3.57-3.08-6.486-5.595-8.39-7.233l9.89 7.925zm542.8-42.525l-22.403 6.308-103.514-2.233-64.754-50.354-78.267 19.584-90.525-7.833-50.69 55.39-95.115 28.415-47.492-14.726c-1.512-1.305-2.39-2.06-2.39-2.06L194.2 749.1s48.282 51.766 75.253 57.854c26.967 6.09 75.688-.436 112.23-6.094 36.537-5.654 65.683-18.704 77.425-40.013 11.74-21.32 13.483-27.408 13.483-27.408s34.806 49.152 64.82 54.81c30.01 5.655 119.186-24.8 119.186-24.8s54.38-14.787 63.942-33.49c9.57-18.705 34.804-80.04 34.804-80.04l-27.303 14.497" fill="#cc334a"/>
        <path d="M815.967 294.634a200.52 200.52 0 0 0-.875-8.37 110.3 110.3 0 0 0-.896-5.935c-7.47-6.29-15.962-11.88-24.8-16.966-9.58-5.596-19.6-10.608-29.83-15.263-10.157-4.79-20.59-9.13-31.086-13.36a559.64 559.64 0 0 0-15.825-6.154c-5.288-2.063-10.625-3.984-15.98-5.934 11.238 1.863 22.36 4.413 33.396 7.255 7.18 1.857 14.325 3.936 21.42 6.153C701.02 104.17 580.364 18.27 448.626 18.27c-131.758 0-252.404 85.897-302.858 217.793 7.096-2.217 14.237-4.296 21.404-6.154 11.057-2.846 22.18-5.396 33.41-7.26-5.37 1.95-10.695 3.87-16 5.935a619.564 619.564 0 0 0-15.824 6.154c-10.496 4.233-20.9 8.57-31.083 13.362-10.207 4.655-20.237 9.667-29.816 15.263-8.837 5.08-17.32 10.675-24.82 16.962a157.62 157.62 0 0 0-.876 5.933 218.65 218.65 0 0 0-.874 8.37c-.49 5.62-.69 11.265-.737 16.92-.114 11.308.65 22.61 2.082 33.795 1.54 11.217 3.6 22.358 6.647 33.13 1.5 5.395 3.2 10.716 5.166 15.866a136.24 136.24 0 0 0 3.183 7.57 116 116 0 0 0 1.72 3.6l.717 1.364c.83.42 1.7.85 2.53 1.25l5.015 2.396c2.795 1.27 6.666 3.11 9.866 4.542l.513-.474-9.314-35.47c1.975-.543 19.658-5.105 50.133-10.905a161.733 161.733 0 0 1-7.385-1.587c-6.937-1.725-13.787-3.83-20.412-6.516-3.292-1.39-6.534-2.906-9.62-4.647-3.093-1.775-6.135-3.784-8.49-6.45 33.485 10.925 102.668 5.975 164.164-.38 56.246-5.795 112.62-9.554 169.292-9.666 56.673.112 113.07 3.87 169.29 9.667 61.525 6.355 130.71 11.305 164.187.38-2.35 2.666-5.387 4.68-8.48 6.45-3.087 1.74-6.328 3.258-9.616 4.646-6.632 2.686-13.474 4.79-20.41 6.515-1.03.247-2.068.47-3.097.693 33.417 6.2 52.87 11.237 54.95 11.796l-8.908 33.79c1.79-.808 3.6-1.587 5.375-2.39l5.01-2.397c.832-.404 1.68-.83 2.53-1.25l.69-1.367a70.213 70.213 0 0 0 1.746-3.6 130.18 130.18 0 0 0 3.183-7.566c1.97-5.15 3.672-10.47 5.17-15.867 3.044-10.77 5.102-21.913 6.644-33.13 1.437-11.187 2.19-22.49 2.087-33.79-.045-5.65-.25-11.293-.745-16.913" fill="#f3eead"/>
        <path d="M486.613 763.7c-4.433.667-8.867 1.23-13.275 1.563-2.842.138-5.85.425-8.58.425l-1.008.02a2440.933 2440.933 0 0 0 7.996-18.078c4.013 4.5 9.117 10.07 14.867 16.07m9.642 9.82c13.766 13.635 30.825 21.443 49.6 22.83-31.538 12.81-61.26 17.75-84.155 19.292-22.825 1.53-45.966-1.162-68.64-7.38 1.9-.34 3.29-.582 4.97-.786 1.862-.225 42.525-5.53 60.854-32.784l1.72.038 4.5-.038c3.046 0 5.813-.25 8.726-.362 6.916-.6 13.68-1.588 20.325-2.93a250.72 250.72 0 0 0 2.1 2.12" fill="#e6ccad"/>
        <path d="M535.267 365.41a403.47 403.47 0 0 1-4.367 5.594c-8.054 10.184-19.225 23.21-32.475 35.946-15.4-.475-31.225-.737-47.516-.737-26.92 0-52.73.712-77.24 1.904 34.63-14.37 76.232-28.408 121.29-36.842a472.178 472.178 0 0 1 40.304-5.866m-202.677 15.5c-12.36 8.683-26.32 19.766-39.86 33.212-34.67 3.47-64.907 7.675-89.86 11.71 38.36-17.635 82.136-33.864 129.72-44.922m423.58 71.57l-14.1 98.663-67.55 47.313-176.18-20.03-26.52-87.34a5.762 5.762 0 0 0-4.618-4.045c-6.53-1.053-12.306-1.59-17.118-1.59-4.834 0-10.588.537-17.146 1.59a5.81 5.81 0 0 0-4.608 4.047l-25.87 85.21-175.198 38.987-69.425-48.633-13.68-110.716a812.863 812.863 0 0 1 9.067-5.038 676.6 676.6 0 0 1 14.48-2.934l12.89 104.47a5.793 5.793 0 0 0 2.443 4.03l47.758 33.467a5.94 5.94 0 0 0 3.313 1.024c.42 0 .827-.044 1.273-.14l144.04-32.05a6.13 6.13 0 0 0 1.435-.516 5.79 5.79 0 0 0 2.84-3.446l25.938-85.41c6.958-1.79 24.78-5.954 40.442-5.954 15.62 0 33.458 4.163 40.42 5.954l25.938 85.41c.67 2.215 2.6 3.8 4.9 4.07l144.042 16.362a5.846 5.846 0 0 0 3.966-1.008l47.79-33.438a5.85 5.85 0 0 0 2.386-3.94l12.76-89.256c9.586 1.85 17.6 3.525 23.886 4.884m17.797-61.872l-12.4 47.04c-25.36-5.59-81.068-16.562-156.893-23.946 24.777-10.562 50-23.812 73.048-40.375 45.12 6.373 78.25 13.203 96.246 17.28" fill="#656c67"/>
        <path d="M481.242 422.163c-6.937 5.62-14.254 10.875-21.87 15.467l-25.405 15.333c-15.933 1.942-29.763 5.883-30.546 6.112-.463.13-.91.33-1.32.584-1.23.71-2.17 1.892-2.62 3.304l-25.87 85.25-138.27 30.75-43.55-30.504-12.67-102.64c24.73-4.54 57.808-9.8 97.54-14.25a236.71 236.71 0 0 0-12.31 16.063l-23.655 33.954 34.442-22.963c.512-.358 22.445-14.787 58.325-32.337a1572.532 1572.532 0 0 1 117.45-4.413 1680.12 1680.12 0 0 1 30.333.288zm-215.238 115.62c9.82-5.308 20.92-4.52 38.292-4.495 1.863.046 3.783.02 5.792-.02 1.708-.022 3.425-.047 5.24-.093 17.9-.175 32.79 1.525 32.526-26.587-.27-28.108-12.758-50.825-30.64-50.646-17.905.154-35.226 23.183-34.155 51.275.29 7.317 1.362 12.596 3.09 16.404-15.607 3.91-19.907 13.56-20.15 14.167m454.894-92.297l-12.466 87.266-43.914 30.745-138.087-15.69-25.764-84.845a5.877 5.877 0 0 0-3.937-3.892c-.856-.25-17.95-5.123-36.08-6.694l3.312-.22c2.862-.206 50.492-6.047 107.362-25.656 62.98 4.84 114.41 12.585 149.57 18.99zm-88.25 80.77c-.175-.667-3.937-11.97-20.59-9.988 1.92-4.177 2.774-9.814 2.17-17.54-2.2-28.045-18.513-50.333-36.396-49.712-17.885.633-29.343 23.88-28.356 51.992.984 28.086 16 27.89 33.884 27.26 24.04-.445 37.244-7.832 49.285-2.01" fill="#e5caa3"/>
        <path d="M481.242 422.163c-6.937 5.62-14.254 10.875-21.87 15.467l-25.405 15.333c-15.933 1.942-29.763 5.883-30.546 6.112-.463.13-.91.33-1.32.584-1.23.71-2.17 1.892-2.62 3.304l-25.87 85.25-138.27 30.75-43.55-30.504-12.67-102.64c24.73-4.54 57.808-9.8 97.54-14.25a236.71 236.71 0 0 0-12.31 16.063l-23.655 33.954 34.442-22.963c.512-.358 22.445-14.787 58.325-32.337a1572.532 1572.532 0 0 1 117.45-4.413 1680.12 1680.12 0 0 1 30.333.288zm-215.238 115.62c9.82-5.308 20.92-4.52 38.292-4.495 1.863.046 3.783.02 5.792-.02 1.708-.022 3.425-.047 5.24-.093 17.9-.175 32.79 1.525 32.526-26.587-.27-28.108-12.758-50.825-30.64-50.646-17.905.154-35.226 23.183-34.155 51.275.29 7.317 1.362 12.596 3.09 16.404-15.607 3.91-19.907 13.56-20.15 14.167m454.894-92.297l-12.466 87.266-43.914 30.745-138.087-15.69-25.764-84.845a5.877 5.877 0 0 0-3.937-3.892c-.856-.25-17.95-5.123-36.08-6.694l3.312-.22c2.862-.206 50.492-6.047 107.362-25.656 62.98 4.84 114.41 12.585 149.57 18.99zm-88.25 80.77c-.175-.667-3.937-11.97-20.59-9.988 1.92-4.177 2.774-9.814 2.17-17.54-2.2-28.045-18.513-50.333-36.396-49.712-17.885.633-29.343 23.88-28.356 51.992.984 28.086 16 27.89 33.884 27.26 24.04-.445 37.244-7.832 49.285-2.01" fill="#c7b39a"/>
        <path d="M781.17 483.87c2.118 1.747 3.797 6.268 1.9 27.326-2.328 25.784-13.165 71.038-19.878 78.334-7.408 1.433-22.937-.267-32.408-2.48 1.637-6.495 2.104-9.608 3.425-16.25l16.56-11.587a5.8 5.8 0 0 0 2.415-3.92l11.575-81.11c7.026 3.8 14.255 7.913 16.41 9.688m-610.6 105.86a343.1 343.1 0 0 0 2.6 8.75c-8.913 2.618-27.063 5.127-35.27 3.69-6.805-6.85-19.497-54.022-22.27-79.072-2.264-20.296-.677-24.683 1.386-26.39 2.396-2.014 11.366-7.118 19.137-11.28l10.496 85.204a5.688 5.688 0 0 0 2.44 4.03l21.48 15.07m335.04 1.19l-.63 5.44s-19.086 17.7-49.815 21.66c-30.73 3.96-54.88-14.923-54.88-14.923 1.01 3.283 2.442 10.695 9.4 17.024-8.187-.977-17.028-1.635-26.303-1.635-3.35 0-6.734.095-10.005.253-18.914.987-45.518 29.583-64.227 58.39-9.18 2.906-37.87 12.014-71.082 21.82-31-42.952-46.24-86.84-47.787-91.38l.02-.026c-.622-1.746-1.25-3.496-1.834-5.283l7.97 5.575v.02l19.692 13.787 6.582 4.588a5.736 5.736 0 0 0 3.307 1.055c.426 0 .85-.046 1.272-.13l180.98-40.29a5.77 5.77 0 0 0 4.27-3.96l25.806-84.958c4.455-.604 8.367-.916 11.725-.916 3.34 0 7.276.313 11.73.917l26.56 87.488c.674 2.217 2.6 3.83 4.88 4.07l12.37 1.418" fill="#e6ccad"/>
        <path d="M712.192 586.22l5.842-4.1a362.608 362.608 0 0 1-3.113 12.068c-8.12 26.033-17.704 49.058-28.35 69.4a108.21 108.21 0 0 1-7.5.254c-8.216 0-16.61-.696-25.896-1.546-16.115-1.48-41.695-4.408-49.774-5.345-6.96-5.55-30.77-24.47-50.584-40.06-.78-.63-1.45-1.212-2.104-1.75-3.49-2.95-7.454-6.303-15.49-6.303-7.294 0-17.95 2.658-43.702 10.45 13.383-10.004 13.47-22.917 13.47-22.917l.63-5.438 169.78 19.286a5.87 5.87 0 0 0 3.98-1.004l17.058-11.95 15.754-11.042" fill="#e6ccad"/>
        <path d="M587.238 229.017c.517 15.104.137 42.475-6.896 68.104-.283.99-.242 2 0 2.937-8.95-.94-17.904-1.745-26.858-2.462 10.05-21.058 12.24-43.483 12.716-51.383 7.717-5.49 15.4-12.067 21.038-17.192m-256.17 17.187c.466 7.9 2.657 30.28 12.69 51.32-8.955.714-17.905 1.543-26.84 2.485a5.512 5.512 0 0 0 0-2.894c-7.023-25.58-7.38-52.975-6.89-68.104 5.638 5.13 13.29 11.708 21.038 17.19" fill="#ebd699"/>
        <path d="M576.446 485.1c5.038-.112 9.063-4.275 8.975-9.312-.083-5.058-4.25-9.088-9.31-8.97-5.052.082-9.06 4.25-8.965 9.307.088 5.034 4.25 9.067 9.304 8.975zm56.2 41.16c-12.04-5.818-25.246 1.57-49.283 2.015-17.883.63-32.9.825-33.883-27.262-.988-28.113 10.47-51.358 28.354-51.992 17.883-.62 34.196 21.67 36.396 49.717.604 7.725-.25 13.362-2.17 17.54 16.65-1.986 20.41 9.314 20.586 9.985" fill="#2d3136"/>
        <path d="M576.11 466.784c5.045-.092 9.21 3.925 9.303 8.97.092 5.05-3.925 9.217-8.97 9.31a9.142 9.142 0 0 1-.333-18.28" fill="#eef7fc"/>
        <path d="M320.21 491.88c5.036-.13 9.02-4.346 8.886-9.38-.137-5.058-4.337-9.04-9.375-8.904-5.06.13-9.05 4.338-8.91 9.375a9.15 9.15 0 0 0 9.4 8.91zm27.64 14.704c.263 28.112-14.62 26.412-32.525 26.587-1.812.05-3.533.07-5.24.096a122.67 122.67 0 0 1-5.793.02c-17.367-.02-28.47-.808-38.292 4.497.242-.604 4.542-10.254 20.146-14.166-1.725-3.808-2.804-9.088-3.092-16.404-1.07-28.09 16.25-51.122 34.155-51.276 17.88-.175 30.37 22.546 30.64 50.65" fill="#2d3136"/>
        <path d="M319.734 473.61c5.05-.13 9.25 3.857 9.38 8.907.128 5.05-3.86 9.246-8.91 9.38-5.05.128-9.245-3.86-9.38-8.91-.128-5.05 3.86-9.25 8.91-9.378" fill="#eef7fc"/>
        <path d="M206.333 318.688l-2.08-3.92-.078-10.305 5.413-61.246 94.008-22.767 5.85 79.042c-4.554-6.18-11.38-20.167-15.608-39.358-2.263-10.25-9.53-13.17-17.896-13.17-7.296 0-15.425 2.224-21.788 3.736-13.666 3.254-31.558 7.81-34.483 14.963-5.675 13.88-8.454 50.096-8.454 50.096l-4.88 2.925m485.442 0l-4.88-2.93s-2.775-36.215-8.454-50.094c-2.93-7.153-20.82-11.71-34.48-14.962-6.366-1.513-14.5-3.738-21.795-3.738-8.368 0-15.634 2.92-17.897 13.17-4.22 19.192-11.056 33.18-15.614 39.36l5.86-79.043 94.01 22.766 4.61 52.208-.17 21.01-1.19 2.254" fill="#ecda9d"/>
        <path d="M544.692 304.5l-189.508-.35-9.82-22.112-7.022-37.9-15.446-12.28-.354-88.262 21.75-64.325s3.575 189.46 47.85 189.46h115.113c44.275 0 46.766-189.54 46.766-189.54l28.8 106.25-20.925 59.755-1.058 16.846-7.37 26.666-8.772 15.796m192.703 33.835l-10.716-5.238s10.72 5.237 10.717 5.237m-10.717-5.238l-33.762-10.184.05-6.48 1.74-3.274-1.568-17.736.316-39.504s9.112 65.384 33.225 77.176" fill="#eddb9e"/>
        <path d="M692.967 316.434l.17-21.01 1.568 17.735-1.738 3.27" fill="#ecd69a"/>
        <path d="M159.838 338.334c-.005 0 10.716-5.238 10.716-5.238-8.037 3.93-10.716 5.238-10.716 5.238m10.716-5.238c24.117-11.792 33.23-77.175 33.23-77.175l.39 48.546-.77 8.696.85 1.608.067 8.146-33.763 10.183" fill="#eddb9e"/>
        <path d="M204.254 314.767l-.85-1.608.77-8.7.08 10.304" fill="#ecd69a"/>
        <path d="M306.534 301.125l-.41-1.03c-8.228-29.945-7.87-61.345-7.132-75.828l-85.475 24.304c-5.75 37.43-3.067 64.93-2.488 69.99a578.407 578.407 0 0 1 21.38-5.35c11.81-2.615 23.72-4.81 35.65-6.823 11.95-1.992 23.94-3.513 35.94-4.967.85-.114 1.68-.176 2.53-.293zm37.22-3.6c-10.033-21.04-12.225-43.425-12.69-51.32-7.743-5.484-15.4-12.063-21.04-17.188-.495 15.13-.132 42.525 6.893 68.104a5.55 5.55 0 0 1 0 2.896c8.937-.946 17.883-1.77 26.837-2.488zm236.584-.408c7.033-25.625 7.412-53 6.896-68.104-5.638 5.125-13.32 11.704-21.038 17.187-.475 7.9-2.666 30.325-12.716 51.384 8.954.72 17.908 1.525 26.858 2.462-.242-.933-.283-1.937 0-2.93zm105.87 21.462c.584-5.03 3.288-32.54-2.462-70.008l-85.5-24.304c.767 14.48 1.104 45.883-7.112 75.83l-.42 1.074c.845.088 1.7.154 2.524.267 24.037 2.754 47.963 6.6 71.62 11.792a609.898 609.898 0 0 1 21.35 5.345zm13.738 4.03c11.48 3.76 23.025 7.74 33.484 13.854-5.596-2.217-11.37-3.804-17.192-5.238-5.796-1.48-11.637-2.73-17.504-3.85-11.75-2.213-23.542-4.092-35.408-5.53a794.432 794.432 0 0 0-35.61-3.85c-11.907-1.004-23.786-2.012-35.72-2.708-47.69-2.934-95.516-3.668-143.375-3.718-47.842.025-95.67.92-143.37 3.738-11.922.69-23.81 1.705-35.713 2.713a757.556 757.556 0 0 0-35.61 3.847c-11.86 1.44-23.657 3.316-35.407 5.53a301.546 301.546 0 0 0-17.526 3.83c-5.796 1.43-11.596 3.02-17.192 5.235 10.455-6.108 22-10.113 33.505-13.88.967-.312 1.946-.578 2.93-.89l-.18-.738c-.2-1.322-4.454-32.747 2.954-77.69.36-2.15 1.9-3.895 4.01-4.478l12.154-3.464c2.643-94.272 41.468-138.61 42.68-139.976-34.69 55.82-34.375 122.026-33.775 137.443l75.533-21.468.175-.042.94-.134.314-.025a4.97 4.97 0 0 1 1.237.113l.22.067.933.31.36.205.736.465.203.137.132.133.225.183c.05.066 2.058 2.053 5.258 5.037-.758-24.888.425-96.284 34.425-155.46-.716 2.076-27.69 80.95-18.395 169.355 3.017 2.416 6.192 4.787 9.288 6.87a5.616 5.616 0 0 1 2.437 4.542c.025.292.67 28.47 13.117 52.442.175.357.308.736.425 1.115 30.954-2.104 61.992-2.954 92.967-2.975 30.98.02 62 .917 92.943 3.046.112-.402.25-.802.454-1.185 12.44-23.97 13.09-52.15 13.09-52.44a5.68 5.68 0 0 1 2.462-4.543c3.088-2.082 6.22-4.453 9.268-6.87 9.308-88.404-17.667-167.28-18.38-169.354 33.97 59.17 35.184 130.567 34.425 155.46 3.175-2.98 5.192-4.968 5.255-5.04l.22-.182.138-.133.204-.138.738-.493.337-.18.983-.332.205-.046a4.76 4.76 0 0 1 1.233-.114l.292.024.962.134.175.04 75.538 21.467c.608-15.416.92-81.624-33.767-137.44 1.204 1.366 40.038 45.703 42.654 139.974l12.175 3.462a5.618 5.618 0 0 1 4.01 4.48c7.403 44.94 3.132 76.366 2.95 77.687l-.176.756c.995.29 1.96.58 2.945.895" fill="#2d3136"/>
        <path d="M523.613 137.533V96.746H376.846v40.787h20.067v-20.725h41.517v125.938h-17.084v23.358h57.77v-23.358h-17.082V116.808h41.516v20.725h20.063zm15.108-55.866v70.937h-50.28V131.88h-11.33v95.754h17.12v53.54h-87.96v-53.54h17.05v-95.75h-11.295v20.724h-50.25v-70.94H538.72" fill="#2d3136"/>
        <path d="M523.613 96.742v40.79h-20.067V116.81H462.03v125.938h17.083v23.358h-57.767v-23.358h17.084v-125.94h-41.517v20.725h-20.067v-40.79h146.767" fill="#cc334a"/>
        <path d="M127.892 390.61c7.33-1.664 17.233-3.78 29.38-6.126a434.876 434.876 0 0 0-25.926 19.154l-3.454-13.03" fill="#656c67"/>
        <path d="M396.296 585.03s2.05 13.187-16.408 18.83c-18.45 5.645-135.342 40.482-148.675 38.595-13.33-1.88-47.163-24.475-47.163-24.475l-8.204-29.184 50.067 31.217 170.383-34.983m104.714-2.555s-1.476 13.26 17.21 18.105c18.685 4.837 136.98 34.562 150.21 32.1 13.233-2.463 46.054-26.505 46.054-26.505l6.93-29.516-46.022 27.45L501.01 582.47" fill="#c7b39a"/>
        <path d="M118.383 560.763s16.196 32.396 42.36 21.18l18.686 6.853-1.87 13.71-39.246 4.978-10.588-6.225-9.347-40.5m663.082-8.89s-26.47 33.812-52.633 22.6l-8.414 5.424 1.867 13.704 39.246 4.983 10.582-6.23 9.35-40.482M371.996 806.38s95.96 48.38 204.61-17.45l-34.893-2.38s-76.133 30.134-136.41 13.48l-33.307 6.35" fill="#c7b39a"/>
        <path d="M157.27 384.484c-12.145 2.35-22.05 4.462-29.378 6.125l3.454 13.025a433.04 433.04 0 0 1 25.925-19.154zm15.897 214a286.923 286.923 0 0 1-2.588-8.76l-21.51-15.05a5.796 5.796 0 0 1-2.44-4.036l-10.487-85.204c-7.767 4.162-16.738 9.27-19.133 11.28-2.07 1.703-3.645 6.082-1.4 26.382 2.784 25.042 15.467 72.22 22.284 79.08 8.2 1.445 26.362-1.076 35.27-3.692zm128.542-225.82a625.51 625.51 0 0 1 49.22-11.65 3658.118 3658.118 0 0 0-72.47 3.365c-14.03.77-27.98 1.72-41.94 2.78-6.99.533-13.94 1.09-20.86 1.85-1.988.19-3.93.41-5.91.666-18.207 10.89-88.03 54.725-135.965 112.037 46.58-32.37 127.725-81.013 227.92-109.054zm-9 41.453c13.546-13.438 27.52-24.525 39.862-33.196-47.562 11.05-91.346 27.267-129.7 44.91 24.954-4.03 55.175-8.235 89.838-11.71zm182.56-54.767a2153.8 2153.8 0 0 0-28.887-.258h-.02c-14.126.02-28.28.17-42.455.454l-26.124 12.38-.367.2c-3.925 1.916-38.225 19.22-70.496 50.087 28.93-15.21 71.443-35.075 121.47-50.48 14.99-4.59 30.694-8.824 46.877-12.383zm-15.9 78.284c7.613-4.596 14.925-9.86 21.87-15.467-9.945-.17-20.036-.3-30.324-.3-42.238 0-81.692 1.73-117.454 4.42-35.875 17.538-57.813 31.968-58.325 32.334l-34.45 22.98 23.662-33.955c3.903-5.637 8.045-10.983 12.316-16.07-39.733 4.44-72.82 9.703-97.542 14.258l12.658 102.634 43.555 30.504 138.266-30.74 25.884-85.267a5.81 5.81 0 0 1 2.612-3.305 4.698 4.698 0 0 1 1.312-.584c.8-.214 14.625-4.16 30.567-6.102l25.39-15.332zm13.975 327.633c4.4-.346 8.82-.908 13.267-1.575a578.993 578.993 0 0 1-14.867-16.07 1660.172 1660.172 0 0 1-8 18.08h1.013c2.74.003 5.74-.297 8.584-.435zm72.5 31.088c-18.762-1.384-35.825-9.188-49.596-22.82-.713-.73-1.4-1.43-2.09-2.134a184.377 184.377 0 0 1-20.34 2.937c-2.908.108-5.67.362-8.71.362l-4.515.045-1.72-.046c-18.317 27.245-58.997 32.554-60.855 32.79-1.676.19-3.055.43-4.96.775 22.676 6.213 45.817 8.908 68.64 7.375 22.886-1.53 52.615-6.494 84.148-19.285zM530.9 371a288.432 288.432 0 0 0 4.35-5.583 467.338 467.338 0 0 0-40.29 5.867c-45.06 8.433-86.672 22.454-121.293 36.82 24.53-1.187 50.325-1.895 77.25-1.895 16.283 0 32.117.275 47.517.73 13.246-12.73 24.42-25.758 32.466-35.94zm124.484-3.858l-.13-.05c-13.633-1.013-27.262-1.942-40.94-2.713-18.98-1.087-37.968-1.99-56.947-2.787-1.104 1.642-3.342 4.875-6.558 9.27-10.33 13.98-30.83 39.626-57.1 61.372 37.19-6.667 101.7-23.167 157.51-62.104 1.4-.99 2.782-2.024 4.16-2.99zm62.642 214.97l-5.85 4.097-15.746 11.042-17.063 11.95a5.906 5.906 0 0 1-3.975 1.012L505.617 590.91l-12.358-1.403a5.79 5.79 0 0 1-4.88-4.072l-26.57-87.492c-4.446-.604-8.396-.912-11.71-.912-3.37 0-7.298.306-11.74.914l-25.8 84.967a5.764 5.764 0 0 1-4.27 3.944l-180.98 40.3a6.7 6.7 0 0 1-1.27.125 5.725 5.725 0 0 1-3.326-1.055l-6.575-4.576-19.69-13.78v-.046l-7.96-5.562c.562 1.794 1.204 3.544 1.837 5.285l-.026.025c1.535 4.55 16.785 48.425 47.78 91.37 33.196-9.79 61.91-18.895 71.07-21.807 18.7-28.82 45.32-57.404 64.243-58.392a214.61 214.61 0 0 1 10.008-.252c9.256 0 18.1.668 26.293 1.638-6.962-6.32-8.387-13.74-9.4-17.02 0 0 24.138 18.875 54.875 14.933 30.74-3.97 49.83-21.682 49.83-21.682s-.09 12.925-13.485 22.93c25.758-7.79 36.413-10.464 43.704-10.464 8.046 0 12.013 3.37 15.49 6.33.67.54 1.34 1.118 2.11 1.747 19.804 15.593 43.617 34.514 50.59 40.06 8.064.946 33.644 3.858 49.76 5.346 9.292.84 17.69 1.55 25.905 1.55 2.654 0 5.137-.107 7.487-.26 10.657-20.334 20.237-43.38 28.366-69.39 1.086-4 2.15-8.032 3.095-12.086zm-9.596-49.353l12.466-87.288c-35.162-6.4-86.583-14.14-149.57-18.975-56.863 19.612-104.488 25.45-107.36 25.645l-3.32.238c18.138 1.56 35.225 6.434 36.084 6.688a5.848 5.848 0 0 1 3.933 3.89l25.775 84.857L664.513 563.5l43.917-30.74zm33.625 18.375l14.104-98.65a1000.528 1000.528 0 0 0-23.88-4.87l-12.75 89.257c-.237 1.575-1.103 3.02-2.395 3.93l-47.8 33.43a5.787 5.787 0 0 1-3.946 1.01l-144.05-16.37a5.797 5.797 0 0 1-4.9-4.054l-25.946-85.416c-6.95-1.796-24.787-5.96-40.4-5.96-15.683 0-33.504 4.164-40.45 5.96l-25.95 85.416a5.785 5.785 0 0 1-2.842 3.427c-.433.238-.93.41-1.43.52l-144.05 32.05a6.18 6.18 0 0 1-1.274.14 5.67 5.67 0 0 1-3.3-1.043l-47.78-33.454a5.82 5.82 0 0 1-2.44-4.035L167.7 447.96a1020.54 1020.54 0 0 0-14.494 2.926 970.245 970.245 0 0 0-9.058 5.054l13.67 110.7 69.442 48.647 175.196-38.975 25.86-85.204c.65-2.143 2.44-3.718 4.618-4.064 6.558-1.054 12.292-1.59 17.15-1.59 4.804 0 10.567.536 17.104 1.59a5.73 5.73 0 0 1 4.617 4.063l26.524 87.315 176.18 20.038 67.543-47.322zm19.5-113.488l12.404-47.04c-17.996-4.077-51.13-10.898-96.25-17.286-23.046 16.568-48.26 29.814-73.046 40.38 75.83 7.38 131.542 18.36 156.888 23.946zm21.504 73.533c1.9-21.05.24-25.58-1.9-27.31-2.137-1.79-9.36-5.88-16.396-9.702l-11.58 81.1a5.79 5.79 0 0 1-2.416 3.926l-16.57 11.588c-1.313 6.637-1.788 9.77-3.405 16.262 9.47 2.2 24.996 3.91 32.396 2.48 6.717-7.284 17.56-52.542 19.867-78.342zm49.975-200.13c.61 12.143.283 24.306-1.075 36.39-1.27 12.06-3.557 24.01-6.745 35.854-1.666 5.892-3.583 11.713-5.85 17.492a159.562 159.562 0 0 1-3.708 8.63 73.908 73.908 0 0 1-2.18 4.27l-1.184 2.133a37.24 37.24 0 0 1-1.45 2.39l-1.225 1.905-1.92.988a142.617 142.617 0 0 1-5.59 2.72l-5.41 2.438a367.58 367.58 0 0 1-10.917 4.438 265.185 265.185 0 0 0-6.923 2.81l-6.018 22.86c-.15-.037-1.963-.5-5.347-1.31l-.325 2.39c6.642 3.47 19.692 10.51 24.14 14.18 8.95 7.394 9.577 19.11 7.594 41.003-1.016 11.238-4.745 33.11-9.92 53.197-8.933 34.574-13.68 38.636-19.804 40.203-3.11.8-7.893 1.596-12.535 1.596-9.44 0-22.303.26-30.953-1.83-2.22 7.866-8.56 28.383-21.115 54.01.63-.306 1.25-.565 1.812-.865 15.488-8.132 45.254-21.1 46.508-21.66l23.513-10.218-12.043 22.646c-.28.492-26.1 49.054-41.912 80.763-15.704 31.41-45.146 38.246-62.77 42.296-2.655.63-5.172 1.215-7.222 1.773-12.644 3.56-38.25 9.662-60.83 15.095l-.82.173c-13.894 8.588-29.056 16.246-45.644 22.546-60.7 22.99-124.68 21.7-182.683.38-9.42 1.214-21.81 2.697-38.305 4.57-7.167.8-14.134 1.215-20.77 1.215-55.268 0-84.56-28.068-105.94-55.547-22.887-29.426-50.882-73.11-52.07-74.94l-16.233-25.32 27.438 12.34c13.135 5.91 52.185 23.985 63.356 29.165.902-.255 1.79-.517 2.673-.775-18.57-26.487-33.8-56.687-44.563-90.14-9.145 2.757-23.232 4.895-34.19 4.895-4.005 0-7.592-.3-10.35-.95-6.13-1.4-13.117-7.31-22.63-40.813-5.52-19.45-9.642-40.683-10.846-51.612-2.373-21.338-1.94-32.767 6.927-40.15 5.346-4.463 23.38-13.934 27.113-15.87l-.8-6.585C76 495.892 41.66 525.642 40.97 526.25L0 562.205l29.188-46.03c23.1-36.48 49.783-65.966 74.333-88.683-1.013-.408-1.96-.817-2.954-1.225l-5.413-2.437c-1.853-.867-3.536-1.663-5.582-2.72l-1.92-.99-1.23-1.903c-.69-1.037-.99-1.617-1.445-2.392l-1.207-2.133c-.755-1.446-1.492-2.85-2.16-4.27a128.66 128.66 0 0 1-3.707-8.63c-2.266-5.78-4.187-11.6-5.85-17.492-3.212-11.846-5.48-23.79-6.75-35.854a227.767 227.767 0 0 1-1.08-36.387 216.06 216.06 0 0 1 1.748-18.146c.433-3.02.887-6.042 1.49-9.042.626-3.058 1.235-5.908 2.16-9.254l.645-2.35 1.684-1.32c9.558-7.51 19.866-13.18 30.35-18.205 8.63-4.054 17.43-7.637 26.296-10.9 24.762-68.72 67.34-129.658 123.296-172.13 57.85-43.893 125.877-67.1 196.74-67.1 70.863 0 138.89 23.207 196.74 67.107 55.96 42.472 98.54 103.413 123.286 172.114 8.887 3.28 17.666 6.837 26.316 10.916 10.48 5.025 20.795 10.696 30.35 18.204l1.683 1.32.65 2.35c.946 3.347 1.55 6.197 2.155 9.255.608 3 1.083 6.02 1.487 9.04.846 6.015 1.45 12.073 1.746 18.135zm-664.292-76.315c-10.483 4.225-20.9 8.583-31.083 13.37-10.204 4.663-20.233 9.667-29.812 15.25-8.838 5.092-17.32 10.68-24.81 16.984a173.16 173.16 0 0 0-.88 5.93c-.323 2.78-.65 5.565-.865 8.37-.496 5.61-.692 11.26-.75 16.91-.108 11.306.667 22.61 2.092 33.8 1.55 11.218 3.6 22.37 6.64 33.135 1.514 5.396 3.197 10.72 5.18 15.85.97 2.596 2.05 5.116 3.175 7.575a116 116 0 0 0 1.72 3.6l.718 1.36c.838.433 1.705.863 2.522 1.25l5.025 2.392c2.804 1.296 6.666 3.13 9.858 4.554l.517-.475-9.296-35.46c1.962-.54 19.654-5.115 50.133-10.915a140.6 140.6 0 0 1-7.398-1.58c-6.927-1.72-13.79-3.837-20.41-6.512-3.28-1.4-6.537-2.912-9.62-4.662-3.088-1.77-6.13-3.77-8.48-6.445 33.48 10.933 102.654 5.97 164.16-.367 56.253-5.805 112.615-9.555 169.282-9.688 56.667.13 113.075 3.88 169.292 9.686 61.54 6.34 130.724 11.303 164.19.366-2.35 2.675-5.387 4.675-8.474 6.446-3.08 1.75-6.34 3.258-9.62 4.662-6.646 2.675-13.484 4.788-20.43 6.513-1.016.233-2.05.475-3.087.69 33.417 6.193 52.87 11.24 54.942 11.8l-8.91 33.78c1.793-.8 3.6-1.57 5.368-2.39l5.03-2.393a93.32 93.32 0 0 0 2.524-1.25l.692-1.358a87.462 87.462 0 0 0 1.744-3.6 133.35 133.35 0 0 0 3.196-7.575c1.963-5.13 3.663-10.457 5.15-15.85 3.046-10.762 5.117-21.916 6.646-33.132 1.442-11.193 2.2-22.5 2.092-33.8-.042-5.65-.258-11.306-.733-16.914a214.888 214.888 0 0 0-.89-8.37 124.29 124.29 0 0 0-.886-5.93c-7.49-6.302-15.965-11.885-24.81-16.98-9.58-5.584-19.6-10.588-29.83-15.25-10.158-4.788-20.596-9.146-31.083-13.37a583.77 583.77 0 0 0-15.838-6.15c-5.28-2.047-10.634-3.984-15.98-5.93 11.234 1.854 22.37 4.416 33.39 7.246 7.18 1.857 14.35 3.95 21.42 6.17-50.46-131.91-171.127-217.8-302.856-217.8-131.757 0-252.4 85.89-302.85 217.8 7.093-2.22 14.234-4.313 21.397-6.17 11.047-2.826 22.176-5.393 33.417-7.247-5.375 1.94-10.7 3.88-16.008 5.93-5.284 1.956-10.563 4.027-15.83 6.144zm300.53 482.496l6.64 7.914c.15.192 14.905 17.75 32.943 35.634 11.995 11.886 26.486 17.903 43.095 17.903 5.67 0 11.63-.73 17.646-2.18 5.584-1.357 11.65-2.802 17.863-4.29 22.433-5.362 47.842-11.454 60.16-14.904 2.44-.693 5.16-1.314 8.02-1.968 16.396-3.787 38.87-9.012 50.78-32.87 8.954-17.905 21.03-41.142 29.987-58.17-7.764 3.578-15.9 7.457-21.68 10.5-8.91 4.678-20.575 6.944-35.66 6.944-8.965 0-17.774-.753-27.52-1.62-19.48-1.79-52.44-5.67-52.78-5.716l-2.524-.28-1.99-1.596c-.297-.216-29.18-23.23-52.526-41.587-.946-.774-1.81-1.49-2.588-2.136-2.46-2.097-2.46-2.097-3.926-2.097-7.487 0-29.25 6.75-76.925 21.53l-2.93.927-2.87-1.082c-.326-.108-31.605-11.708-69.09-11.708-3.065 0-6.124.08-9.103.233-3.754.192-24.825 10.2-51.77 52.833l-1.746 2.738-3.087.994c-.446.155-46.825 15.126-96.008 29.188l-3.192.908-3.02-1.403c-.322-.13-19.568-9.058-37.88-17.475 9.987 14.754 22.758 33.16 33.996 47.592 19.63 25.28 44.37 48.642 91.807 48.642 5.95 0 12.27-.367 18.763-1.105 48.256-5.453 60.68-7.653 67.368-8.82 2.262-.383 4.054-.712 6.34-.99.368-.047 39.88-5.155 50.968-30.026 11.433-25.558 13.742-31.646 13.83-31.88l4.032-10.762s.5-2.786 1.32-3.653l.022.02.08.067c1.27.912 3.152 3.758 3.152 3.758" fill="#2d3136"/>
    </svg>
</svg>
